<svg width="194" height="196" viewBox="0 0 194 196" fill="none" xmlns="http://www.w3.org/2000/svg">
<ellipse cx="97" cy="98" rx="97" ry="98" fill="#EB984E" fill-opacity="0.15"/>
<path d="M132.412 72C119.938 72 106.264 78.948 97 89.496C87.73 78.948 74.05 72 61.576 72C49.696 72 37 78.936 37 98.4C37 117.864 49.696 124.788 61.576 124.8C74.05 124.8 87.724 117.852 96.994 107.304C106.258 117.852 119.932 124.8 132.406 124.8C144.292 124.8 157 117.864 157 98.4C157 78.936 144.292 72 132.412 72ZM61.576 114.246C52.504 114.246 47.8 108.912 47.8 98.4C47.8 87.888 52.504 82.554 61.576 82.554C71.614 82.554 83.26 89.07 90.418 98.4C83.26 107.73 71.614 114.246 61.576 114.246ZM132.412 114.246C122.374 114.246 110.728 107.73 103.57 98.4C110.722 89.07 122.38 82.554 132.412 82.554C141.484 82.554 146.2 87.888 146.2 98.4C146.2 108.912 141.484 114.246 132.412 114.246Z" fill="#E67E22"/>
</svg>
