<svg width="194" height="196" viewBox="0 0 194 196" fill="none" xmlns="http://www.w3.org/2000/svg">
<ellipse cx="97" cy="98" rx="97" ry="98" fill="#EB984E" fill-opacity="0.15"/>
<path d="M99.1135 151.321C90.5395 149.929 82.7155 147.679 77.0515 145.783C76.7755 145.693 72.3655 144.091 71.0095 143.563C69.3415 142.921 68.4715 140.977 69.1075 139.303C69.6235 137.953 71.3815 133.609 71.5015 133.339C73.9015 127.819 77.5015 120.421 82.2715 113.065C82.4455 120.283 84.0535 127.459 87.0175 134.101C89.8975 140.563 94.0315 146.437 99.1135 151.321ZM98.4355 80.5572C81.6895 46.4232 44.4955 47.6412 38.6275 62.8992C34.1215 74.6112 53.8375 102.511 99.2095 82.3632C99.2215 82.3572 99.2215 82.3572 99.2335 82.3512C99.0775 82.0692 98.5495 80.8692 98.4355 80.5572ZM106.758 79.2252C106.764 79.2252 106.77 79.2192 106.77 79.2192C132.396 67.8372 128.814 48.0732 122.184 45.5352C113.262 42.1212 97.0435 55.2792 106.302 78.2172C106.392 78.3792 106.698 79.0572 106.758 79.2252ZM153.876 104.215C150 95.5152 142.878 89.2812 134.598 86.3112C133.764 86.0112 132.912 85.8732 132.06 85.8732C127.758 85.8732 123.618 89.4432 123.228 93.9012C122.574 101.335 124.05 108.907 127.308 116.209C130.518 123.403 135.072 129.487 140.928 133.951C142.452 135.115 144.318 135.661 146.178 135.661C149.532 135.661 152.88 133.885 154.212 130.705C157.638 122.533 157.794 112.987 153.876 104.215ZM134.43 142.429C127.26 136.957 121.578 129.595 117.54 120.553C113.448 111.379 111.774 102.103 112.578 92.9772C112.8 90.4392 113.544 87.9912 114.738 85.7532C114.528 85.8072 114.072 85.9152 114.054 85.9212C110.286 86.8632 106.632 88.4952 103.386 90.6252C98.6815 93.7092 94.5355 98.2872 92.7535 103.687C92.2735 105.145 91.9075 106.747 91.7875 108.277C91.2175 115.585 92.4055 123.133 95.6035 130.297C98.6995 137.227 103.314 143.005 108.882 147.415C112.278 150.097 118.398 151.795 123.402 151.795C128.1 151.795 132.738 150.397 136.902 148.285C138.204 147.625 141.072 145.837 141.258 145.711C138.768 145.075 136.434 143.959 134.43 142.429Z" fill="#E67E22"/>
</svg>
