<svg width="652" height="171" viewBox="0 0 652 171" fill="none" xmlns="http://www.w3.org/2000/svg">
<path d="M47.664 136.44C22.992 136.44 10.32 123.192 9.648 96.696C9.552 93.816 9.504 89.784 9.504 84.6C9.504 79.416 9.552 75.384 9.648 72.504C10.032 59.448 13.584 49.56 20.304 42.84C27.024 36.12 36.144 32.76 47.664 32.76C59.184 32.76 68.304 36.12 75.024 42.84C81.744 49.56 85.296 59.448 85.68 72.504C85.872 78.264 85.968 82.296 85.968 84.6C85.968 86.904 85.872 90.936 85.68 96.696C85.008 123.192 72.336 136.44 47.664 136.44ZM47.664 127.8C56.304 127.8 63.168 125.208 68.256 120.024C73.44 114.744 76.224 106.728 76.608 95.976C76.8 90.216 76.896 86.424 76.896 84.6C76.896 82.776 76.8 78.984 76.608 73.224C76.224 62.472 73.44 54.504 68.256 49.32C63.072 44.04 56.208 41.4 47.664 41.4C39.12 41.4 32.256 44.04 27.072 49.32C21.888 54.504 19.104 62.472 18.72 73.224C18.624 76.104 18.576 79.896 18.576 84.6C18.576 89.304 18.624 93.096 18.72 95.976C19.104 106.728 21.84 114.744 26.928 120.024C32.112 125.208 39.024 127.8 47.664 127.8ZM119.248 135C118.288 135 117.52 134.712 116.944 134.136C116.368 133.56 116.08 132.792 116.08 131.832V37.512C116.08 36.552 116.368 35.784 116.944 35.208C117.52 34.536 118.288 34.2 119.248 34.2H152.8C163.168 34.2 171.28 36.648 177.136 41.544C182.992 46.44 185.92 53.688 185.92 63.288C185.92 70.872 184.048 77.016 180.304 81.72C176.56 86.328 171.184 89.448 164.176 91.08L187.36 130.536C187.648 131.112 187.792 131.64 187.792 132.12C187.792 132.888 187.504 133.56 186.928 134.136C186.352 134.712 185.68 135 184.912 135H183.184C181.744 135 180.64 134.712 179.872 134.136C179.2 133.464 178.48 132.456 177.712 131.112L154.816 92.376H125.152V131.832C125.152 132.792 124.816 133.56 124.144 134.136C123.568 134.712 122.8 135 121.84 135H119.248ZM152.08 83.736C160.432 83.736 166.624 82.056 170.656 78.696C174.784 75.24 176.848 70.104 176.848 63.288C176.848 56.472 174.784 51.384 170.656 48.024C166.624 44.568 160.432 42.84 152.08 42.84H125.152V83.736H152.08ZM218.557 135C217.597 135 216.829 134.712 216.253 134.136C215.677 133.56 215.389 132.792 215.389 131.832V37.368C215.389 36.408 215.677 35.64 216.253 35.064C216.829 34.488 217.597 34.2 218.557 34.2H221.293C222.253 34.2 223.021 34.488 223.597 35.064C224.173 35.64 224.461 36.408 224.461 37.368V131.832C224.461 132.792 224.173 133.56 223.597 134.136C223.021 134.712 222.253 135 221.293 135H218.557ZM261.898 135C260.938 135 260.17 134.712 259.594 134.136C259.018 133.56 258.73 132.792 258.73 131.832V37.512C258.73 36.552 259.018 35.784 259.594 35.208C260.17 34.536 260.938 34.2 261.898 34.2H317.482C318.538 34.2 319.354 34.488 319.93 35.064C320.506 35.64 320.794 36.456 320.794 37.512V39.672C320.794 40.632 320.458 41.4 319.786 41.976C319.21 42.552 318.442 42.84 317.482 42.84H267.802V81.576H314.602C315.658 81.576 316.474 81.864 317.05 82.44C317.626 83.016 317.914 83.832 317.914 84.888V87.048C317.914 88.008 317.578 88.776 316.906 89.352C316.33 89.928 315.562 90.216 314.602 90.216H267.802V131.832C267.802 132.792 267.466 133.56 266.794 134.136C266.218 134.712 265.45 135 264.49 135H261.898ZM570.598 135C569.638 135 568.87 134.712 568.294 134.136C567.718 133.56 567.43 132.792 567.43 131.832V37.512C567.43 36.552 567.718 35.784 568.294 35.208C568.87 34.536 569.638 34.2 570.598 34.2H601.27C611.254 34.2 619.126 35.688 624.886 38.664C630.742 41.544 634.87 45.816 637.27 51.48C639.766 57.144 641.11 64.344 641.302 73.08C641.398 75.96 641.446 79.752 641.446 84.456C641.446 89.256 641.398 93.096 641.302 95.976C641.11 105.192 639.766 112.632 637.27 118.296C634.87 123.864 630.838 128.04 625.174 130.824C619.51 133.608 611.782 135 601.99 135H570.598ZM601.27 126.36C608.95 126.36 614.998 125.352 619.414 123.336C623.83 121.224 626.998 117.96 628.918 113.544C630.934 109.032 632.038 102.936 632.23 95.256C632.326 92.376 632.374 88.776 632.374 84.456C632.374 80.232 632.326 76.68 632.23 73.8C632.038 63.048 629.494 55.224 624.598 50.328C619.798 45.336 611.782 42.84 600.55 42.84H576.502V126.36H601.27Z" fill="black"/>
<path d="M498.044 30C477.774 30 455.554 44.475 440.5 66.45C425.436 44.475 403.206 30 382.936 30C363.631 30 343 44.45 343 85C343 125.55 363.631 139.975 382.936 140C403.206 140 425.426 125.525 440.49 103.55C455.544 125.525 477.764 140 498.035 140C517.349 140 538 125.55 538 85C538 44.45 517.349 30 498.044 30ZM382.936 118.012C368.194 118.012 360.55 106.9 360.55 85C360.55 63.1 368.194 51.9875 382.936 51.9875C399.248 51.9875 418.172 65.5625 429.804 85C418.172 104.437 399.248 118.012 382.936 118.012ZM498.044 118.012C481.733 118.012 462.808 104.437 451.176 85C462.798 65.5625 481.742 51.9875 498.044 51.9875C512.786 51.9875 520.45 63.1 520.45 85C520.45 106.9 512.786 118.012 498.044 118.012Z" fill="#EB984E" fill-opacity="0.81"/>
</svg>
